<svg width="505" height="505" viewBox="0 0 505 505" fill="none" xmlns="http://www.w3.org/2000/svg">
<path fill-rule="evenodd" clip-rule="evenodd" d="M90.8979 347.416L374.094 64.2202L504.202 0.580566L124.132 380.65L90.8979 347.416Z" fill="#09D3C3"/>
<path d="M504.202 0.580566L440.562 130.688L157.366 413.884L124.132 380.65L504.202 0.580566Z" fill="#16AA9E"/>
<path d="M393.958 103.753L120.596 377.115L127.667 384.186L401.029 110.824L491.827 12.9549L393.958 103.753Z" fill="#53FFF1"/>
<path fill-rule="evenodd" clip-rule="evenodd" d="M35.0365 469.039L24.4299 458.432L100.444 382.418L44.5825 304.636L35.7436 273.877L125.193 378.883L35.0365 469.039Z" fill="#9D5F18"/>
<path d="M121.657 403.631L45.6431 479.645L35.0365 469.039L125.193 378.883L230.198 468.332L199.439 459.493L121.657 403.631Z" fill="#824F14"/>
<path d="M53.4213 451.361C41.315 439.255 21.6869 439.255 9.58067 451.361C-2.52559 463.467 -2.52559 483.095 9.58066 495.202C21.6869 507.308 41.315 507.308 53.4213 495.202C65.5275 483.096 65.5275 463.467 53.4213 451.361Z" fill="#09D3C3"/>
<path d="M47.4109 451.008C38.6241 442.221 24.3779 442.221 15.5911 451.008C6.80427 459.794 6.80427 474.041 15.5911 482.827C24.3779 491.614 38.6241 491.614 47.4109 482.827C56.1977 474.041 56.1977 459.794 47.4109 451.008Z" fill="#53FFF1"/>
</svg>
